<?xml version="1.0" encoding="UTF-8" standalone="no"?>
<!-- Created with Inkscape (http://www.inkscape.org/) -->

<svg
   xmlns:dc="http://purl.org/dc/elements/1.1/"
   xmlns:cc="http://creativecommons.org/ns#"
   xmlns:rdf="http://www.w3.org/1999/02/22-rdf-syntax-ns#"
   xmlns:svg="http://www.w3.org/2000/svg"
   xmlns="http://www.w3.org/2000/svg"
   xmlns:sodipodi="http://sodipodi.sourceforge.net/DTD/sodipodi-0.dtd"
   xmlns:inkscape="http://www.inkscape.org/namespaces/inkscape"
   viewBox="0 60 170 180"
   version="1"
   id="svg8"
   class="icon"
   sodipodi:docname="666.svg"
   inkscape:version="0.92.5 (2060ec1f9f, 2020-04-08)">
  <metadata
     id="metadata175">
    <rdf:RDF>
      <cc:Work
         rdf:about="">
        <dc:format>image/svg+xml</dc:format>
        <dc:type
           rdf:resource="http://purl.org/dc/dcmitype/StillImage" />
        <dc:title></dc:title>
      </cc:Work>
    </rdf:RDF>
  </metadata>
  <defs
     id="defs173" />
  <sodipodi:namedview
     pagecolor="#ffffff"
     bordercolor="#666666"
     borderopacity="1"
     objecttolerance="10"
     gridtolerance="10"
     guidetolerance="10"
     inkscape:pageopacity="0"
     inkscape:pageshadow="2"
     inkscape:window-width="1920"
     inkscape:window-height="1015"
     id="namedview171"
     showgrid="false"
     showborder="false"
     inkscape:zoom="3.7083822"
     inkscape:cx="95.841316"
     inkscape:cy="96.634438"
     inkscape:window-x="0"
     inkscape:window-y="0"
     inkscape:window-maximized="1"
     inkscape:current-layer="svg8" />
  <!-- layer 0 is the line making the pentagram it self, layer 1-11 is the fields between them -->
  <g
     id="layer0"
     stroke="#000">
    <path
       d="M50 73l33 88 32-87-80 51h96zm84 38a51 50 0 0 0-51-50 51 50 0 0 0-51 50 51 50 0 0 0 51 50 51 50 0 0 0 51-50z"
       id="path134" />
  </g>
  <!-- minute fields-->
  <g
     id="layer1"
     stroke="#000">
    <path
       d="M294 342a75949 75949 0 0 0-103-66l16-12a191 191 0 0 1 229 12 208388 208388 0 0 1-122 78l-20-12z"
       transform="scale(.26458)"
       id="path137" />
  </g>
  <g
     id="layer2"
     stroke="#000">
    <path
       d="M443 438l-52-34 46-126v-1l5 4a188 188 0 0 1 54 190l-53-33z"
       transform="scale(.26458)"
       id="path140" />
  </g>
  <g
     id="layer3"
     stroke="#000">
    <path
       d="M316 608l48-132 1-2h130l-6 19a190 190 0 0 1-173 115z"
       transform="scale(.26458)"
       id="path143" />
  </g>
  <g
     id="layer4"
     stroke="#000">
    <path
       d="M300 608a191 191 0 0 1-167-130l-2-4h132l25 66 25 67c0 2 0 2-4 2l-9-1z"
       transform="scale(.26458)"
       id="path146" />
  </g>
  <g
     id="layer5"
     stroke="#000">
    <path
       d="M129 465a187 187 0 0 1 60-187l47 126-7 5-98 63-2-7z"
       transform="scale(.26458)"
       id="path149" />
  </g>
  <g
     id="layer6"
     stroke="#000">
    <path
       d="M253 438l-12-33 72-47 73 47-11 33-12 32-49 1h-49z"
       transform="scale(.26458)"
       id="path152" />
  </g>
  <!--hour fields-->
  <g
     id="layer7"
     stroke="#000">
    <path
       d="M290 538l-24-64h95l-23 64-23 64-25-64z"
       transform="scale(.26458)"
       id="path155" />
  </g>
  <g
     id="layer8"
     stroke="#000">
    <path
       d="M140 470a77176 77176 0 0 0 97-63l25 64H138z"
       transform="scale(.26458)"
       id="path158" />
  </g>
  <g
     id="layer9"
     stroke="#000">
    <path
       d="M237 398l-43-116 116 74-71 46-2-4z"
       transform="scale(.26458)"
       id="path161" />
  </g>
  <g
     id="layer10"
     stroke="#000">
    <path
       d="M352 379l-35-23 3-3 112-71-44 119-36-22z"
       transform="scale(.26458)"
       id="path164" />
  </g>
  <g
     id="layer11"
     stroke="#000">
    <path
       d="M366 470l23-63 100 64a4540 4540 0 0 1-123-1z"
       transform="scale(.26458)"
       id="path167" />
  </g>
</svg>
